<?xml version="1.0" encoding="utf-8"?>
<!-- Svg Vector Icons : http://www.onlinewebfonts.com/icon -->
<!DOCTYPE svg PUBLIC "-//W3C//DTD SVG 1.1//EN" "http://www.w3.org/Graphics/SVG/1.1/DTD/svg11.dtd">
<svg version="1.1" xmlns="http://www.w3.org/2000/svg" xmlns:xlink="http://www.w3.org/1999/xlink" x="0px" y="0px" viewBox="0 0 1000 1000" enable-background="new 0 0 1000 1000" xml:space="preserve">
<metadata> Svg Vector Icons : http://www.onlinewebfonts.com/icon </metadata>
<g><g transform="translate(0.000000,512.000000) scale(0.100000,-0.100000)"><path d="M2757.9,3424.6C1530.3,2545.6,515.2,1819.7,501.8,1810.1c-17.2-9.6-23-99.6-19.2-379.2l5.7-367.7L2734.9,2672c1235.3,882.9,2254.2,1606.8,2263.7,1606.8S6000.3,3574,7205,2712.2c1204.6-859.9,2217.8-1585.8,2252.2-1608.8l61.3-44.1l-1.9,369.6v369.6L7264.3,3407.4C6025.2,4292.2,5008.2,5018.1,5000.6,5020C4994.8,5021.9,3985.5,4303.7,2757.9,3424.6z"/><path d="M3137.1,2329.2c-1018.9-735.4-1863.5-1346.4-1875-1357.9c-15.3-15.3-21.1-798.6-19.1-2784.7c0-1520.6,0-2811.5,1.9-2865.1V-4780h3753.8h3753.8l-3.8,2876.6l-5.8,2874.7L6875.5,2317.7C5849,3058.8,5004.4,3664,4998.7,3664C4992.9,3664,4156,3062.7,3137.1,2329.2z M5801.1,820c170.4-30.6,453.9-114.9,469.2-137.9c7.6-13.4-124.5-595.6-149.4-668.4c-5.7-15.3-63.2-3.8-187.7,36.4c-145.6,47.9-222.1,59.4-407.9,68.9c-360,13.4-547.7-44-756.5-239.4c-107.3-99.6-218.3-281.5-258.5-421.3l-11.5-44h756.5h758.4V-806v-220.2h-804.4H4405v-143.6v-143.6h804.4h804.4v-210.7v-210.7h-766.1c-421.3,0-766.1-3.8-766.1-5.7c0-30.7,86.2-247.1,122.6-310.3c59.4-99.6,212.6-243.2,317.9-296.9c300.7-153.2,674.1-166.6,1061-36.4c93.8,30.7,172.4,53.6,176.2,49.8c15.3-15.3,141.7-633.9,134.1-656.9c-13.4-32.6-294.9-137.9-497.9-183.9c-216.4-49.8-618.6-53.6-835-9.6c-607.1,124.5-1091.7,511.4-1311.9,1051.4c-34.5,86.2-74.7,210.7-88.1,277.7l-24.9,120.7h-197.3h-197.3v210.7v210.7h162.8c155.1,0,162.8,1.9,162.8,44c0,23,5.7,88.1,11.5,143.6l13.4,99.6h-176.2h-174.3V-806v218.3l203,5.8l203,5.7l51.7,155.1C3912.7,517.4,4774.6,1001.9,5801.1,820z"/></g></g>
</svg>