<?xml version="1.0" standalone="no"?>
<!DOCTYPE svg PUBLIC "-//W3C//DTD SVG 20010904//EN"
 "http://www.w3.org/TR/2001/REC-SVG-20010904/DTD/svg10.dtd">
<svg version="1.0" xmlns="http://www.w3.org/2000/svg"
 width="100.000000pt" height="100.000000pt" viewBox="0 0 100.000000 100.000000"
 preserveAspectRatio="xMidYMid meet">

<g transform="translate(0.000000,100.000000) scale(0.100000,-0.100000)"
fill="#000000" stroke="none">
<path d="M131 906 c-49 -27 -50 -37 -51 -404 0 -372 2 -386 55 -410 41 -19
697 -17 734 2 49 26 51 41 51 406 0 365 -2 380 -51 406 -39 20 -702 20 -738 0z
m264 -150 c28 -28 45 -83 45 -146 0 -104 -39 -163 -109 -163 -74 0 -105 50
-105 168 0 119 29 164 107 165 27 0 45 -7 62 -24z m243 -54 c-24 -43 -92 -169
-153 -280 -102 -187 -112 -202 -138 -202 l-27 0 42 78 c24 43 93 169 153 280
102 187 112 202 138 202 l27 0 -42 -78z m91 -166 c43 -34 63 -147 41 -228 -16
-54 -40 -79 -86 -85 -33 -4 -45 -1 -71 21 -80 67 -61 283 27 307 29 8 69 1 89
-15z"/>
<path d="M289 709 c-18 -35 -22 -130 -7 -174 11 -35 17 -40 46 -43 29 -3 34 1
47 32 19 45 19 127 1 171 -12 29 -20 35 -45 35 -21 0 -34 -7 -42 -21z"/>
<path d="M636 491 c-38 -42 -28 -198 14 -221 46 -25 80 24 80 115 0 106 -47
159 -94 106z"/>
</g>
</svg>
