<?xml version="1.0" standalone="no"?>
<!DOCTYPE svg PUBLIC "-//W3C//DTD SVG 20010904//EN"
 "http://www.w3.org/TR/2001/REC-SVG-20010904/DTD/svg10.dtd">
<svg version="1.0" xmlns="http://www.w3.org/2000/svg"
 width="50.000000pt" height="50.000000pt" viewBox="0 0 50.000000 50.000000"
 preserveAspectRatio="xMidYMid meet">

<g transform="translate(0.000000,50.000000) scale(0.100000,-0.100000)"
fill="#000000" stroke="none">
<path d="M146 469 c-69 -16 -76 -29 -76 -137 0 -107 10 -150 49 -207 35 -51
111 -100 145 -91 42 11 108 69 135 121 22 43 26 65 29 158 3 91 1 111 -13 127
-32 35 -176 51 -269 29z m237 -29 c27 -13 27 -14 27 -115 0 -89 -3 -107 -26
-153 -23 -46 -85 -112 -106 -112 -5 0 -8 14 -8 30 0 23 -4 30 -20 30 -16 0
-20 -7 -20 -30 0 -16 -3 -30 -8 -30 -21 0 -83 66 -106 112 -23 46 -26 64 -26
154 l0 102 28 10 c15 6 36 13 47 16 36 9 189 -1 218 -14z"/>
<path d="M134 375 c-18 -14 -17 -14 13 -9 25 5 34 2 45 -15 15 -24 38 -28 38
-7 0 18 -38 46 -60 46 -9 0 -25 -7 -36 -15z"/>
<path d="M292 374 c-24 -16 -30 -44 -9 -44 7 0 18 9 25 21 11 17 20 20 45 15
30 -5 31 -5 13 9 -25 19 -46 19 -74 -1z"/>
<path d="M131 321 c-19 -12 21 -25 50 -16 17 6 19 9 8 16 -8 5 -21 9 -29 9 -8
0 -21 -4 -29 -9z"/>
<path d="M311 321 c-19 -12 21 -25 50 -16 17 6 19 9 8 16 -8 5 -21 9 -29 9 -8
0 -21 -4 -29 -9z"/>
<path d="M136 200 c17 -29 26 -36 58 -38 24 -2 42 2 47 10 8 11 10 11 18 0 5
-8 23 -12 47 -10 32 2 41 9 58 38 l20 35 -25 -22 c-29 -26 -61 -30 -79 -8 -7
8 -20 15 -30 15 -10 0 -23 -7 -30 -15 -18 -22 -50 -18 -79 8 l-25 22 20 -35z"/>
</g>
</svg>
