<svg width="20" height="35" viewBox="0 0 20 35" fill="none" xmlns="http://www.w3.org/2000/svg">
<path d="M5.35862 0.348992C4.207 0.749622 3.80636 0.98319 2.63773 1.96814L1.75294 2.70249V0.315367L0.884793 0.365232L0 0.415133V19.9451L1.83647 19.9455L1.88637 16.2397L1.91962 12.5172L2.95445 13.3517C4.3234 14.4534 5.47501 14.8873 7.27784 14.9875C8.4631 15.0374 8.93027 14.9875 9.79842 14.7036C14.2552 13.2179 16.2414 7.99307 13.9714 3.7702C12.3523 0.799115 8.51299 -0.736849 5.35822 0.348253L5.35862 0.348992ZM9.8487 2.36879C10.9671 2.9531 11.9852 4.03819 12.5363 5.22307C13.0703 6.42458 13.1539 8.14389 12.7034 9.42931C11.6183 12.6676 7.89582 14.2369 4.85784 12.7511C3.73948 12.2004 2.92157 11.3822 2.304 10.1803C1.88674 9.36241 1.83647 9.0952 1.83647 7.59284C1.83647 5.64034 2.12033 4.83907 3.27195 3.58691C4.5071 2.2516 5.59219 1.81732 7.59534 1.90085C8.73033 1.93411 9.18123 2.03427 9.8487 2.36838V2.36879V2.36879Z" fill="black"/>
<path d="M9.89406 7.58154C5.19157 9.16365 3.23414 14.8178 5.8885 18.9654C6.6565 20.1673 8.05871 21.3859 9.14343 21.7865C12.031 22.8716 14.6684 22.4041 16.8216 20.4346L17.7396 19.6L17.7392 21.9702H19.5757V7.61516L17.7392 7.61479V9.9853L16.8711 9.18403C16.3869 8.75014 15.5021 8.16582 14.9012 7.88198C13.499 7.23114 11.3458 7.09738 9.89329 7.58154H9.89406V7.58154ZM14.3172 9.46787C18.0064 10.8534 19.008 16.1112 16.1201 19.0324C15.0686 20.1008 13.9166 20.5514 12.2305 20.5347C10.9954 20.5347 10.6783 20.4678 9.84339 20.0505C8.67513 19.4662 7.67358 18.4314 7.08965 17.1626C6.4887 15.8939 6.45544 13.7909 7.00612 12.5894C7.70722 11.0372 8.89247 9.90178 10.3608 9.36773C11.3291 9.01737 13.2317 9.05061 14.3168 9.46787H14.3172V9.46787ZM0.99704 21.9033C1.38104 21.5696 1.46457 21.3693 1.46457 20.7517L0.99704 21.9033Z" fill="black"/>
<path d="M1.43924 29.4718C0.821666 29.739 0.55446 30.0893 0.738145 30.4064C0.788035 30.49 1.02197 30.4064 1.25554 30.1729C1.75633 29.7053 2.8248 29.6555 3.25869 30.0727C3.62606 30.4567 3.60907 31.2912 3.19181 31.8423C3.00813 32.0925 2.3739 32.6602 1.75633 33.1277C1.15538 33.5782 0.654619 34.096 0.654619 34.2461C0.637989 34.5133 0.821663 34.5465 2.39054 34.5465C3.84264 34.5465 4.14312 34.4967 4.14312 34.2963C4.14312 34.096 3.87588 34.0461 2.79116 34.0461L1.43924 34.0454L2.25712 33.4111C3.59242 32.3427 4.14348 31.6249 4.14348 30.9072C4.14348 30.0893 3.7761 29.5885 3.00848 29.3716C2.24048 29.1713 2.19061 29.1713 1.43924 29.4718V29.4718ZM6.36359 29.3882C5.51244 29.6384 5.07815 30.4231 5.01163 31.792C4.94473 33.2441 5.27886 33.9955 6.1969 34.446C7.86632 35.2473 9.35131 33.7283 9.08448 31.4749C8.90079 29.8558 7.74953 28.971 6.36396 29.3882H6.36359ZM7.56547 29.9056C8.18304 30.1895 8.48315 30.874 8.48315 31.9924C8.48315 33.5949 7.59873 34.5462 6.5639 34.079C5.87942 33.7619 5.56234 33.0774 5.57897 31.9424C5.57897 30.8075 5.9127 30.123 6.53027 29.8724C7.03106 29.6721 7.06431 29.6721 7.5651 29.9056H7.56547V29.9056ZM11.4043 29.3213C9.43446 29.8055 9.28438 33.8118 11.204 34.5295C14.1577 35.6301 14.6971 30.7065 13.107 29.6551C12.6565 29.3712 11.8552 29.2045 11.4043 29.3213V29.3213ZM12.8568 30.1563C13.2574 30.5066 13.491 31.8086 13.3243 32.7101C13.0239 34.3292 11.438 34.7465 10.7369 33.3779C10.4031 32.7437 10.4198 31.1578 10.7535 30.5236C11.1707 29.7057 12.1557 29.522 12.8568 30.1563V30.1563ZM15.2939 29.4718C14.6929 29.722 14.4091 30.0893 14.5761 30.3732C14.626 30.4567 14.9435 30.3399 15.2939 30.106C16.2954 29.4215 17.3805 29.8221 17.3805 30.874C17.3805 31.5584 16.9466 32.1257 15.611 33.1273C15.01 33.5948 14.5092 34.0956 14.5092 34.2623C14.4926 34.5295 14.6593 34.5462 16.2788 34.5125C17.4807 34.4793 18.0816 34.3957 18.1149 34.2623C18.1648 34.1123 17.7978 34.0454 16.8128 34.0121L15.4439 33.9622L16.3619 33.2112C17.5306 32.2599 17.9977 31.5921 17.9977 30.8577C17.9977 30.0897 17.6137 29.5889 16.8627 29.372C16.0947 29.1717 16.0448 29.1717 15.2935 29.4721L15.2939 29.4718Z" fill="black"/>
<path d="M4.99613 22.562C4.94624 22.6622 4.99614 22.8459 5.12956 22.9793C5.34651 23.1962 5.39677 23.1962 5.58008 22.9793C5.69687 22.8459 5.74715 22.6456 5.68025 22.5454C5.54683 22.3285 5.14619 22.3284 4.99576 22.562H4.99613V22.562ZM1.60744 24.0976C-1.22116 25.5119 3.76063 26.0286 3.76063 26.7184C3.76063 27.2524 3.02626 27.4527 1.95778 27.2192C1.457 27.119 1.02312 27.0691 0.972856 27.1024C0.772541 27.3027 1.13991 27.5363 1.92416 27.7033C3.35962 28.0038 4.5615 27.336 4.29467 26.3514C4.19451 25.9508 3.32635 25.5501 2.5421 25.5501C1.7741 25.5501 1.27333 25.1661 1.52391 24.7655C1.67396 24.5485 1.92454 24.465 2.52549 24.465C2.97601 24.465 3.51043 24.5319 3.72737 24.5984C3.99458 24.6986 4.09473 24.682 4.09473 24.4983C4.09473 23.9809 2.37544 23.697 1.60744 24.0976V24.0976ZM7.51672 24.0311C6.73209 24.3649 6.53177 24.8324 6.51514 26.2678C6.51514 27.4365 6.56504 27.6368 6.81562 27.6867C7.06583 27.7366 7.09945 27.5865 7.09945 26.4013C7.09945 24.8656 7.38329 24.3815 8.26808 24.3815C9.15287 24.3815 9.43671 24.8657 9.43671 26.3846C9.43671 27.4531 9.4866 27.72 9.68692 27.72C9.88723 27.72 9.93713 27.4527 9.93713 26.2509C9.93713 24.8989 9.90388 24.7318 9.53651 24.3981C9.10262 23.9808 8.05076 23.7972 7.51672 24.0307V24.0311V24.0311ZM11.8401 24.0478C11.1893 24.298 10.7716 25.0327 10.7716 25.8839C10.7716 26.8688 11.2055 27.4864 12.0737 27.72C12.8583 27.9203 13.9767 27.6701 13.8433 27.3027C13.7764 27.119 13.6429 27.1024 13.3092 27.2358C12.2241 27.653 11.1727 26.8019 11.3227 25.6333C11.4728 24.5149 12.4411 24.0976 13.6596 24.6151C13.8599 24.7152 13.9434 24.6819 13.9434 24.4816C13.9434 23.9808 12.658 23.7137 11.8401 24.0478V24.0478ZM15.162 24.2148C14.4775 24.6154 14.2772 25.0161 14.2772 25.9341C14.2772 26.8688 14.7277 27.4864 15.5792 27.7203C16.3472 27.9206 17.4489 27.6704 17.4489 27.2864C17.4489 27.0861 17.3488 27.0695 17.0816 27.1696C16.2969 27.4369 15.5792 27.303 15.1453 26.7856L14.728 26.3015L15.7965 26.2013C17.0653 26.1012 17.5827 25.851 17.7162 25.3165C18 24.1479 16.3975 23.4468 15.1623 24.2148H15.162V24.2148ZM16.8476 24.4816C17.215 24.6317 17.1813 25.3328 16.7977 25.5501C16.464 25.7172 14.7779 25.7837 14.7779 25.6337C14.7779 25.4001 15.2954 24.5652 15.479 24.4986C15.7961 24.3652 16.5475 24.3652 16.848 24.482L16.8476 24.4816V24.4816ZM5.09631 25.8839C5.09631 27.4029 5.1462 27.72 5.34651 27.72C5.54683 27.72 5.59672 27.4029 5.59672 25.8839C5.59672 24.3649 5.54683 24.0478 5.34651 24.0478C5.1462 24.0478 5.09631 24.3649 5.09631 25.8839Z" fill="black"/>
</svg>
