<svg width="20" height="30" viewBox="0 0 20 30" fill="none" xmlns="http://www.w3.org/2000/svg">
<path d="M5.35862 0.349024C4.207 0.749654 3.80636 0.983223 2.63773 1.96817L1.75294 2.70252V0.315399L0.884793 0.365264L0 0.415166V19.9451L1.83647 19.9455L1.88637 16.2396L1.91962 12.5172L2.95445 13.3517C4.3234 14.4535 5.47504 14.8873 7.27788 14.9875C8.46314 15.0374 8.93027 14.9875 9.79842 14.7037C14.2552 13.2179 16.2414 7.9931 13.9714 3.77023C12.3523 0.799148 8.51303 -0.736853 5.35826 0.348249L5.35862 0.349024ZM9.8487 2.36878C10.9671 2.9531 11.9853 4.03822 12.5363 5.2231C13.0704 6.42461 13.1539 8.14392 12.7034 9.42934C11.6183 12.6676 7.89582 14.2369 4.85784 12.7512C3.73947 12.2005 2.92157 11.3822 2.304 10.1803C1.88674 9.36245 1.83647 9.09523 1.83647 7.59287C1.83647 5.64037 2.12033 4.8391 3.27195 3.58694C4.5071 2.25164 5.59219 1.81735 7.59534 1.90088C8.73033 1.93414 9.18123 2.0343 9.8487 2.36841V2.36878V2.36878Z" fill="black"/>
<path d="M9.89403 7.58154C5.19154 9.16365 3.2341 14.8178 5.88847 18.9654C6.65647 20.1673 8.05867 21.3859 9.1434 21.7865C12.031 22.8716 14.6683 22.4041 16.8215 20.4346L17.7396 19.6L17.7392 21.9702H19.5757V7.61516L17.7392 7.61479V9.9853L16.871 9.18403C16.3869 8.75014 15.5021 8.16582 14.9011 7.88198C13.4989 7.23114 11.3457 7.09738 9.89325 7.58154H9.89403V7.58154ZM14.3172 9.46787C18.0064 10.8534 19.008 16.1112 16.12 19.0324C15.0686 20.1008 13.9166 20.5514 12.2305 20.5347C10.9954 20.5347 10.6783 20.4678 9.84339 20.0505C8.67513 19.4662 7.67355 18.4314 7.08961 17.1626C6.48866 15.8939 6.45541 13.7909 7.00608 12.5894C7.70719 11.0372 8.89244 9.90178 10.3608 9.36773C11.3291 9.01737 13.2317 9.05061 14.3168 9.46787H14.3172V9.46787ZM6.21807 16.5863C5.1753 17.1309 5.59444 20.1031 7.06846 18.5784L6.21807 16.5863Z" fill="black"/>
<path d="M1.0403 29.0026V28.4913L2.96078 26.3889C3.18617 26.1427 3.37177 25.9287 3.51761 25.7469C3.66345 25.5632 3.7714 25.3908 3.84148 25.2298C3.91345 25.067 3.94944 24.8965 3.94944 24.7185C3.94944 24.5139 3.90019 24.3368 3.80171 24.1872C3.70511 24.0376 3.57254 23.9221 3.40397 23.8406C3.23541 23.7592 3.04601 23.7185 2.83578 23.7185C2.61229 23.7185 2.41721 23.7649 2.25054 23.8577C2.08577 23.9486 1.95793 24.0764 1.86702 24.2412C1.778 24.406 1.73349 24.5991 1.73349 24.8207H1.06303C1.06303 24.4798 1.14163 24.1806 1.29883 23.923C1.45602 23.6654 1.67004 23.4647 1.94088 23.3207C2.21361 23.1768 2.51949 23.1048 2.85851 23.1048C3.19942 23.1048 3.50151 23.1768 3.76477 23.3207C4.02804 23.4647 4.23448 23.6588 4.3841 23.9031C4.53372 24.1474 4.60854 24.4192 4.60854 24.7185C4.60854 24.9325 4.56971 25.1418 4.49206 25.3463C4.4163 25.549 4.28372 25.7753 4.09432 26.0253C3.90682 26.2734 3.6464 26.5765 3.31306 26.9344L2.00622 28.3322V28.3776H4.71081V29.0026H1.0403Z" fill="#2B2A29"/>
<path d="M7.78188 29.0822C7.35384 29.0822 6.98926 28.9657 6.68811 28.7327C6.38697 28.4979 6.15686 28.1579 5.99776 27.7128C5.83867 27.2659 5.75912 26.7261 5.75912 26.0935C5.75912 25.4647 5.83867 24.9278 5.99776 24.4827C6.15875 24.0357 6.38981 23.6948 6.69096 23.4599C6.99399 23.2232 7.35763 23.1048 7.78188 23.1048C8.20613 23.1048 8.56883 23.2232 8.86997 23.4599C9.173 23.6948 9.40407 24.0357 9.56316 24.4827C9.72415 24.9278 9.80464 25.4647 9.80464 26.0935C9.80464 26.7261 9.72509 27.2659 9.566 27.7128C9.40691 28.1579 9.17679 28.4979 8.87565 28.7327C8.57451 28.9657 8.20992 29.0822 7.78188 29.0822ZM7.78188 28.4572C8.20613 28.4572 8.53568 28.2526 8.77053 27.8435C9.00539 27.4344 9.12281 26.8511 9.12281 26.0935C9.12281 25.5897 9.06883 25.1607 8.96088 24.8065C8.85482 24.4524 8.7014 24.1825 8.50064 23.9969C8.30178 23.8113 8.06219 23.7185 7.78188 23.7185C7.36142 23.7185 7.03282 23.9258 6.79607 24.3406C6.55932 24.7535 6.44095 25.3378 6.44095 26.0935C6.44095 26.5973 6.49398 27.0253 6.60005 27.3776C6.70611 27.7299 6.85857 27.9979 7.05744 28.1816C7.2582 28.3653 7.49968 28.4572 7.78188 28.4572Z" fill="#2B2A29"/>
<path d="M12.782 29.0822C12.3539 29.0822 11.9893 28.9657 11.6882 28.7327C11.3871 28.4979 11.1569 28.1579 10.9978 27.7128C10.8387 27.2659 10.7592 26.7261 10.7592 26.0935C10.7592 25.4647 10.8387 24.9278 10.9978 24.4827C11.1588 24.0357 11.3899 23.6948 11.691 23.4599C11.9941 23.2232 12.3577 23.1048 12.782 23.1048C13.2062 23.1048 13.5689 23.2232 13.87 23.4599C14.1731 23.6948 14.4041 24.0357 14.5632 24.4827C14.7242 24.9278 14.8047 25.4647 14.8047 26.0935C14.8047 26.7261 14.7252 27.2659 14.5661 27.7128C14.407 28.1579 14.1769 28.4979 13.8757 28.7327C13.5746 28.9657 13.21 29.0822 12.782 29.0822ZM12.782 28.4572C13.2062 28.4572 13.5358 28.2526 13.7706 27.8435C14.0055 27.4344 14.1229 26.8511 14.1229 26.0935C14.1229 25.5897 14.0689 25.1607 13.961 24.8065C13.8549 24.4524 13.7015 24.1825 13.5007 23.9969C13.3019 23.8113 13.0623 23.7185 12.782 23.7185C12.3615 23.7185 12.0329 23.9258 11.7961 24.3406C11.5594 24.7535 11.441 25.3378 11.441 26.0935C11.441 26.5973 11.4941 27.0253 11.6001 27.3776C11.7062 27.7299 11.8587 27.9979 12.0575 28.1816C12.2583 28.3653 12.4998 28.4572 12.782 28.4572Z" fill="#2B2A29"/>
<path d="M15.8843 29.0026V28.4913L17.8048 26.3889C18.0301 26.1427 18.2158 25.9287 18.3616 25.7469C18.5074 25.5632 18.6154 25.3908 18.6855 25.2298C18.7574 25.067 18.7934 24.8965 18.7934 24.7185C18.7934 24.5139 18.7442 24.3368 18.6457 24.1872C18.5491 24.0376 18.4165 23.9221 18.248 23.8406C18.0794 23.7592 17.89 23.7185 17.6798 23.7185C17.4563 23.7185 17.2612 23.7649 17.0945 23.8577C16.9298 23.9486 16.8019 24.0764 16.711 24.2412C16.622 24.406 16.5775 24.5991 16.5775 24.8207H15.907C15.907 24.4798 15.9856 24.1806 16.1428 23.923C16.3 23.6654 16.514 23.4647 16.7849 23.3207C17.0576 23.1768 17.3635 23.1048 17.7025 23.1048C18.0434 23.1048 18.3455 23.1768 18.6088 23.3207C18.872 23.4647 19.0785 23.6588 19.2281 23.9031C19.3777 24.1474 19.4525 24.4192 19.4525 24.7185C19.4525 24.9325 19.4137 25.1418 19.336 25.3463C19.2603 25.549 19.1277 25.7753 18.9383 26.0253C18.7508 26.2734 18.4904 26.5765 18.157 26.9344L16.8502 28.3322V28.3776H19.5548V29.0026H15.8843Z" fill="#2B2A29"/>
</svg>
