<svg width="93" height="81" viewBox="0 0 93 81" fill="none" xmlns="http://www.w3.org/2000/svg">
<g clip-path="url(#clip0_8952_258)">
<path fill-rule="evenodd" clip-rule="evenodd" d="M79 0C80.1045 0 81 0.89543 81 2V2.52476C83.4757 3.02567 85.9092 4.30502 87.4924 6.0796C88.2277 6.90384 88.1556 8.16811 87.3314 8.90345C86.5072 9.63878 85.2429 9.56671 84.5076 8.74248C83.6996 7.83683 82.4012 7.06846 81 6.64454V14.254C82.3557 14.679 83.9016 15.2265 85.1561 16.1213C86.8515 17.3306 88 19.1466 88 21.7951C88 24.5967 86.9019 26.7961 85.079 28.227C83.8831 29.1658 82.4611 29.7083 81 29.9329V30C81 31.1046 80.1045 32 79 32C77.8954 32 77 31.1046 77 30V29.8069C74.4117 29.2646 71.8857 27.8359 70.3378 25.5226C69.7235 24.6046 69.9697 23.3624 70.8877 22.7481C71.8057 22.1338 73.0479 22.38 73.6622 23.298C74.391 24.3873 75.6069 25.2223 77 25.6756V17.179C75.9724 16.8105 74.9156 16.3457 74.0105 15.7001C72.3151 14.4908 71.1667 12.6748 71.1667 10.0263C71.1667 7.43969 72.0218 5.37215 73.6347 4.00286C74.629 3.15876 75.7997 2.67524 77 2.44964V2C77 0.89543 77.8954 0 79 0ZM77 6.59267C76.6974 6.71464 76.438 6.87006 76.2234 7.05217C75.6892 7.50574 75.1667 8.35 75.1667 10.0263C75.1667 11.3008 75.6224 11.9366 76.3332 12.4436C76.5357 12.588 76.7577 12.7206 77 12.8455V6.59267ZM81 18.4756V25.8535C81.6257 25.6874 82.1721 25.4237 82.6092 25.0806C83.3902 24.4675 84 23.4682 84 21.7951C84 20.5207 83.5443 19.8849 82.8334 19.3779C82.341 19.0267 81.733 18.7451 81 18.4756Z" fill="#FF0000"/>
<path d="M52.3999 6.59987C47.3333 9.1332 45.7667 11.3 49.5 12.5C50.9667 12.9 52.3999 13.7 52.3999 14.5C52.3999 15.1667 49.3333 19.2665 44.3999 24.1999C35.0666 33.3999 21.7333 41.3999 11.0666 44.1999C7.86659 45.1332 5.33325 46.3332 5.33325 47.1332C5.33325 50.0665 24.3999 42.8665 35.1999 35.6665C42.5333 30.7332 55 18.5333 55 16C55 15.2 55.0667 15.6665 56 16.0665C62.9333 18.8665 63.0666 18.3332 61.9999 13.5332C59.9999 3.1332 59.7333 2.99987 52.3999 6.59987Z" fill="#FF0000"/>
<path d="M49.3333 57.6668V77.6668H46H42.6667V64.3335V51.0002H34.6667H26.6667V64.3335V77.6668H23.3333C20.1333 77.6668 20 77.4002 20 69.0002V60.3335H12H3.99999V69.0002C3.99999 75.8002 3.09999 77.5002 1.49999 77.5002C0.433323 77.5002 0.999994 78.7 0.999994 79.5C0.999994 80.3 16.4 80.3335 46.6667 80.3335C76.9333 80.3335 92 80.3 92 79.5C92 78.7 92.4667 77.5 91 77.5C88.4667 77.5 88 76.7336 88 57.6668V37.6668H80H72V57.6668V77.6668H68.6667H65.3333V57.6668V37.6668H57.3333H49.3333V57.6668ZM62.6667 42.8668C62.6667 44.3335 61.8667 45.8002 61.0667 46.2002C59.7333 46.8668 59.7333 47.1335 61.0667 47.8002C61.8667 48.2002 62.6667 49.6668 62.6667 51.0002C62.6667 52.3335 61.8667 53.8002 61.0667 54.2002C59.7333 54.8668 59.7333 55.1335 61.0667 55.8002C61.8667 56.2002 62.6667 57.6668 62.6667 59.0002C62.6667 60.3335 61.8667 61.8002 61.0667 62.2002C59.7333 62.8668 59.7333 63.1335 61.0667 63.8002C61.8667 64.2002 62.6667 65.6668 62.6667 67.0002C62.6667 68.3335 61.8667 69.8002 61.0667 70.2002C59.7333 70.8668 59.7333 71.1335 61.0667 71.8002C61.8667 72.2002 62.6667 73.6668 62.6667 75.1335C62.6667 77.2668 61.7333 77.6668 57.3333 77.6668C52.9333 77.6668 52 77.2668 52 75.1335C52 73.6668 52.8 72.2002 53.7333 71.8002C55.0667 71.1335 55.0667 70.8668 53.7333 70.2002C52.8 69.8002 52 68.3335 52 67.0002C52 65.6668 52.8 64.2002 53.7333 63.8002C55.0667 63.1335 55.0667 62.8668 53.7333 62.2002C52.8 61.8002 52 60.3335 52 59.0002C52 57.6668 52.8 56.2002 53.7333 55.8002C55.0667 55.1335 55.0667 54.8668 53.7333 54.2002C52.8 53.8002 52 52.3335 52 51.0002C52 49.6668 52.8 48.2002 53.7333 47.8002C55.0667 47.1335 55.0667 46.8668 53.7333 46.2002C52.8 45.8002 52 44.3335 52 42.8668C52 40.7335 52.9333 40.3335 57.3333 40.3335C61.7333 40.3335 62.6667 40.7335 62.6667 42.8668ZM85.3333 59.0002V77.6668H80H74.6667V59.0002V40.3335H80H85.3333V59.0002ZM40 65.6668V77.6668H34.6667H29.3333V65.6668V53.6668H34.6667H40V65.6668ZM15.7333 63.8002C18.2667 64.7335 18.2667 68.9336 16 70.0002C15.2 71.0002 15.7333 70.5002 15.7333 71.8002C16.5333 72.2002 17.3333 73.6668 17.3333 75.1335C17.3333 77.2668 16.4 77.6668 12 77.6668C7.59999 77.6668 6.66666 77.2668 6.66666 75.1335C6.66666 73.6668 7.46666 72.2002 8.39999 71.8002C9.73332 71.1335 9.73332 70.8668 8.39999 70.2002C7.46666 69.8002 6.66666 68.3335 6.66666 67.0002C6.66666 63.6668 11.3333 62.0668 15.7333 63.8002Z" fill="#FF0000"/>
<path d="M56 43.3334C56 44.0001 56.6667 44.6667 57.3333 44.6667C58.1333 44.6667 58.6667 44.0001 58.6667 43.3334C58.6667 42.5334 58.1333 42.0001 57.3333 42.0001C56.6667 42.0001 56 42.5334 56 43.3334Z" fill="#FF0000"/>
<path d="M60 47.3334C60 48.0001 60.6667 48.6667 61.3333 48.6667C62.1333 48.6667 62.6667 48.0001 62.6667 47.3334C62.6667 46.5334 62.1333 46.0001 61.3333 46.0001C60.6667 46.0001 60 46.5334 60 47.3334Z" fill="#FF0000"/>
<path d="M60 55.3334C60 56.0001 60.6667 56.6667 61.3333 56.6667C62.1333 56.6667 62.6667 56.0001 62.6667 55.3334C62.6667 54.5334 62.1333 54.0001 61.3333 54.0001C60.6667 54.0001 60 54.5334 60 55.3334Z" fill="#FF0000"/>
<path d="M60 63.3334C60 64.0001 60.6667 64.6667 61.3333 64.6667C62.1333 64.6667 62.6667 64.0001 62.6667 63.3334C62.6667 62.5334 62.1333 62.0001 61.3333 62.0001C60.6667 62.0001 60 62.5334 60 63.3334Z" fill="#FF0000"/>
<path d="M60 71.3334C60 72.0001 60.6667 72.6667 61.3333 72.6667C62.1333 72.6667 62.6667 72.0001 62.6667 71.3334C62.6667 70.5334 62.1333 70.0001 61.3333 70.0001C60.6667 70.0001 60 70.5334 60 71.3334Z" fill="#FF0000"/>
<path d="M52 47.3334C52 48.0001 52.6667 48.6667 53.3333 48.6667C54.1333 48.6667 54.6667 48.0001 54.6667 47.3334C54.6667 46.5334 54.1333 46.0001 53.3333 46.0001C52.6667 46.0001 52 46.5334 52 47.3334Z" fill="#FF0000"/>
<path d="M52 55.3334C52 56.0001 52.6667 56.6667 53.3333 56.6667C54.1333 56.6667 54.6667 56.0001 54.6667 55.3334C54.6667 54.5334 54.1333 54.0001 53.3333 54.0001C52.6667 54.0001 52 54.5334 52 55.3334Z" fill="#FF0000"/>
<path d="M52 63.3334C52 64.0001 52.6667 64.6667 53.3333 64.6667C54.1333 64.6667 54.6667 64.0001 54.6667 63.3334C54.6667 62.5334 54.1333 62.0001 53.3333 62.0001C52.6667 62.0001 52 62.5334 52 63.3334Z" fill="#FF0000"/>
<path d="M52 71.3334C52 72.0001 52.6667 72.6667 53.3333 72.6667C54.1333 72.6667 54.6667 72.0001 54.6667 71.3334C54.6667 70.5334 54.1333 70.0001 53.3333 70.0001C52.6667 70.0001 52 70.5334 52 71.3334Z" fill="#FF0000"/>
<path d="M56 50.9999C56 51.6666 56.6667 52.3333 57.3333 52.3333C58.1333 52.3333 58.6667 51.6666 58.6667 50.9999C58.6667 50.1999 58.1333 49.6666 57.3333 49.6666C56.6667 49.6666 56 50.1999 56 50.9999Z" fill="#FF0000"/>
<path d="M56 58.9999C56 59.6666 56.6667 60.3333 57.3333 60.3333C58.1333 60.3333 58.6667 59.6666 58.6667 58.9999C58.6667 58.1999 58.1333 57.6666 57.3333 57.6666C56.6667 57.6666 56 58.1999 56 58.9999Z" fill="#FF0000"/>
<path d="M56 66.9999C56 67.6666 56.6667 68.3333 57.3333 68.3333C58.1333 68.3333 58.6667 67.6666 58.6667 66.9999C58.6667 66.1999 58.1333 65.6666 57.3333 65.6666C56.6667 65.6666 56 66.1999 56 66.9999Z" fill="#FF0000"/>
<path d="M15 71.3334C15 72.0001 15.6667 72.6667 16.3333 72.6667C17.1333 72.6667 17.6667 72.0001 17.6667 71.3334C17.6667 70.5334 17.1333 70.0001 16.3333 70.0001C15.6667 70.0001 15 70.5334 15 71.3334Z" fill="#FF0000"/>
<path d="M7 71.5C7 72.25 7.75 73 8.5 73C9.4 73 10 72.25 10 71.5C10 70.6 9.4 70 8.5 70C7.75 70 7 70.6 7 71.5Z" fill="#FF0000"/>
<path d="M56 74.9999C56 75.6666 56.6667 76.3333 57.3333 76.3333C58.1333 76.3333 58.6667 75.6666 58.6667 74.9999C58.6667 74.1999 58.1333 73.6666 57.3333 73.6666C56.6667 73.6666 56 74.1999 56 74.9999Z" fill="#FF0000"/>
<path d="M10.6667 66.9999C10.6667 67.6666 11.3334 68.3333 12.0001 68.3333C12.8001 68.3333 13.3334 67.6666 13.3334 66.9999C13.3334 66.1999 12.8001 65.6666 12.0001 65.6666C11.3334 65.6666 10.6667 66.1999 10.6667 66.9999Z" fill="#FF0000"/>
<path d="M10.6667 74.9999C10.6667 75.6666 11.3334 76.3333 12.0001 76.3333C12.8001 76.3333 13.3334 75.6666 13.3334 74.9999C13.3334 74.1999 12.8001 73.6666 12.0001 73.6666C11.3334 73.6666 10.6667 74.1999 10.6667 74.9999Z" fill="#FF0000"/>
</g>
<defs>
<clipPath id="clip0_8952_258">
<rect width="93" height="81" fill="white"/>
</clipPath>
</defs>
</svg>
