<svg xmlns="http://www.w3.org/2000/svg" width="215" height="64" version="1.0" viewBox="0 0 1288 381"><path d="M1037.4 109.1c-.3.6 0 1.7.8 2.5 1.3 1.3 1.6 1.3 2.7 0 .7-.8 1-2 .6-2.6-.8-1.3-3.2-1.3-4.1.1zM1131.8 109.6c-3.7 1.6-5.3 3.7-4.2 5.6.3.5 1.7 0 3.1-1.4 3-2.8 9.4-3.1 12-.6 2.2 2.3 2.1 7.3-.4 10.6-1.1 1.5-4.9 4.9-8.6 7.7-3.6 2.7-6.6 5.8-6.6 6.7-.1 1.6 1 1.8 10.4 1.8 8.7 0 10.5-.3 10.5-1.5s-1.6-1.5-8.1-1.5h-8.1l4.9-3.8c8-6.4 11.3-10.7 11.3-15 0-4.9-2.2-7.9-6.8-9.2-4.6-1.2-4.9-1.2-9.4.6zM1161.3 109.1c-5.1 1.5-7.7 6.2-8.1 14.4-.4 8.7 1.6 13.2 7.1 15.9 10 4.8 18.9-4.3 17.3-17.8-1.1-9.7-8-15-16.3-12.5zm7.2 3.1c3.7 1.7 5.5 5.8 5.5 12.5 0 9.6-5.3 15.3-11.5 12.5-4.1-1.9-6-6-5.9-12.8 0-6.8 2-10.9 5.7-12.4 3-1.2 3.2-1.2 6.2.2zM1191.5 108.7c-11.8 2.9-12.7 26.9-1.2 31.2 5.1 1.9 10.8.2 13.8-4.1 4.7-6.5 3.2-21.4-2.4-25.1-2.7-1.7-7.5-2.7-10.2-2zm8.7 5c2.4 2.1 3.8 9.9 2.8 15.3-1.8 9.7-11.3 12.2-15.5 4-2-3.8-1.9-13.3.1-17.1 2.5-4.9 8.4-6 12.6-2.2zM1214.8 109.6c-3.6 1.5-5.3 3.7-4.3 5.4.3.5 2.2-.2 4.3-1.6 6-4.1 12.5-1.7 12.5 4.6 0 4.1-2.6 7.5-10.6 13.5-3.6 2.8-6.6 5.8-6.6 6.8-.1 1.6.9 1.7 10.6 1.5 7.2-.2 10.8-.7 11-1.5.3-.9-1.9-1.3-7.8-1.5l-8.2-.3 5.5-4.5c7-5.7 9.8-9.7 9.8-14.1 0-4.6-2.3-7.6-6.8-8.9-4.6-1.2-4.9-1.2-9.4.6zM1017.1 118.3c-7.4 3.7-4 11.7 4.9 11.7 4.6 0 8 1.7 8 4 0 3.2-4.4 4.4-10.8 3-3-.6-5.6-.9-5.9-.7-1.2 1.2 1 2.6 5.7 3.6 8.6 1.8 15.8-2.2 14.2-8.1-.6-2.4-5.8-4.8-10.5-4.8-4.6 0-7.6-2.3-6.1-4.7.9-1.3 2.4-1.8 6-1.8 2.7 0 5.9.4 7.2.8 1.6.6 2.2.5 2.2-.6 0-3.1-10.3-4.8-14.9-2.4zM1052.5 117.9c-4.7 2-5.9 4.8-6 13.4 0 7 .3 8.2 1.8 8.5 1.5.3 1.7-.6 1.7-7.7 0-9.2 1.7-12.1 7-12.1s7 2.9 7 12c0 6.4.3 8 1.5 8s1.5-1.6 1.5-8.8c0-8.1-.2-9.1-2.4-11.1-2.6-2.5-8.9-3.6-12.1-2.2zM1078.4 118c-3.9 1.5-6.4 5.9-6.4 11 0 5.9 2.6 9.6 7.8 11 4.7 1.2 11.4-.3 10.6-2.5-.4-1.1-1.2-1.2-3.2-.4-6.5 2.5-12.8-2.6-11.9-9.6.9-6.7 6.7-9.2 14-6.1 1.2.6 1.7.4 1.7-.8 0-3-7.7-4.6-12.6-2.6zM1098.3 119c-4.1 2.4-5.3 4.8-5.3 10.3 0 5.6 2.7 9.3 7.8 10.7 4.6 1.2 11.2-.3 11.2-2.6 0-1.2-.6-1.3-2.2-.7-4.7 1.6-9 .8-11.6-2.3l-2.5-2.9 6.4-.6c7.6-.6 10.7-2.1 11.5-5.3 1.7-7-7.9-11.2-15.3-6.6zm10.1 1.6c2.2.9 2 5.1-.3 6.4-2 1-12.1 1.4-12.1.5 0-1.4 3.1-6.4 4.2-6.8 1.9-.8 6.4-.8 8.2-.1zM1038 129c0 9.1.3 11 1.5 11s1.5-1.9 1.5-11-.3-11-1.5-11-1.5 1.9-1.5 11zM490 186v60h10.8l.4-27.3c.3-26.1.4-27.4 2.7-32.5 3.1-6.8 11.4-14.5 18.2-16.7 11.7-3.9 22.4-.1 27.6 9.8l2.8 5.2.3 30.7.3 30.8H565v-17.3c-.1-9.4-.5-24.1-1-32.4-.7-12.8-1.2-16.1-3.3-20.5-3.2-7.2-6.5-10.8-12.9-14.3-4.9-2.8-6.1-3-15.3-3-9 0-10.6.3-15.5 2.8-3 1.6-7.8 5-10.5 7.8-2.8 2.7-5.4 4.9-5.8 4.9-.4 0-.7-10.8-.7-24v-24h-10v60zM270 186.5V246h11V127h-11v59.5zM409 186.5V246h11l.2-18.9.3-18.8 18.5 16.8c10.2 9.3 19.9 17.8 21.5 18.9 2.3 1.5 4.7 2 10.3 2h7.3l-24.3-22.1c-13.4-12.1-24.3-22.5-24.3-22.9 0-.4 9.9-9.5 22-20 12.1-10.6 22.2-19.7 22.3-20.1.5-1.4-13-1-15.5.4-1.2.7-10.3 8.3-20.2 16.9-10 8.7-18.3 15.8-18.6 15.8-.3 0-.5-15.1-.5-33.5V127h-10v59.5zM199.6 158.1c-23.9 3.4-41 27.6-36.8 52.1 3.5 20.5 17.4 34.8 37 37.9 18.2 3 38.3-6.7 46.2-22.1l1.8-3.6-4.5-2.4-4.6-2.4-1.6 2.4c-8.1 12.6-20.5 19-34.3 17.7-14.9-1.3-27-13.2-28.5-28.2l-.6-5.5h38.2c33 0 38.2-.2 38.7-1.5.4-.8.1-4.3-.5-7.7-4.3-24.4-26-40.1-50.5-36.7zm18.7 12.5c8.3 2.8 17.1 12.3 19.1 20.6l.6 2.8h-62.9l.8-2.8c3-10.2 10.9-18.2 21.1-21.3 4.5-1.3 16.5-1 21.3.7zM88.6 160.1c-6.9 2.4-9.3 3.8-16.3 9.7l-5.3 4.4v-14.3l-5.2.3-5.3.3v117h11l.3-22.2.2-22.3 6.2 5c8.2 6.6 15.1 9.2 25.9 9.8 7.1.3 9.9 0 15.1-1.7 26.7-8.9 38.6-40.2 25-65.5-9.7-17.8-32.7-27-51.6-20.5zm26.9 12.1c6.7 3.5 12.8 10 16.1 17.1 3.2 7.2 3.7 17.5 1 25.2-6.5 19.4-28.8 28.8-47 19.9-6.7-3.3-11.6-8.2-15.3-15.4-2.5-4.9-2.8-6.5-2.8-15.5 0-11.7 1.7-16.5 8.6-24 7.4-8 13.9-10.6 25.9-10.1 6.8.2 9.5.8 13.5 2.8zM329.5 160c-27.7 8.8-38.9 43.4-22.4 69.2 10.9 17 33 23.9 52.8 16.6 9.6-3.6 17.4-10 23-19.1 2.3-3.7 2.3-3.9.5-5.2-2.3-1.7-7.4-3.9-7.7-3.4-.2.2-2 2.7-4 5.5-7 9.7-15.2 13.8-28.2 13.8-7.6.1-9.8-.3-13.9-2.3-9.8-4.8-16.7-14.6-18.2-25.9l-.7-5.2H388v-3c0-18-13.7-36.4-30.9-41.4-7.4-2.2-20-2-27.6.4zm28.9 11.9c8.2 4 14.1 11.1 16.1 19.3l.7 2.8h-31.1c-34.5 0-32.6.4-29.6-6.7 3.3-7.8 9.7-13.8 18.2-16.9 6.1-2.3 19.7-1.4 25.7 1.5zM660 159.8c-10.7 3.6-17.4 8.7-23.2 17.6-10.1 15.6-10.4 35.6-.8 50.6 4.6 7.2 13 14.5 19.5 16.9 17.3 6.5 33.1 3.7 46-8.1l5.5-5V246h11v-86h-11v14.2l-5.2-4.8c-2.9-2.6-8.2-6.1-11.8-7.8-8.4-3.9-21.3-4.7-30-1.8zm26.5 11.3c22.1 8.3 28.1 39.8 10.8 57.3-6.3 6.4-13.2 9.1-23.3 9-7.4 0-9.3-.4-14.3-2.9-7-3.5-13-9.7-16.5-17.3-3.6-7.6-3.8-20.2-.5-27.4 4.2-9.3 11.3-16.1 20.1-19.3 5.8-2.1 17.2-1.9 23.7.6zM768.9 159.9c-19.7 6.3-33.6 29.1-30 49.4 1.6 9.2 7.1 19.6 13.3 25.2 9.6 8.6 19.2 11.9 32.6 11.3 10.9-.5 17.7-3.1 26.2-9.9l6.3-5.1-.6 9.1c-.4 5-1.3 10.6-2.1 12.5-2.3 5.6-8.1 11.1-14.8 14.2-5.5 2.4-7.6 2.8-15.8 2.8-12.5.1-18.2-1.9-25.8-8.8-3.1-2.9-6.7-5.8-7.9-6.4-2.2-1.2-10.3-1.7-10.3-.7 0 1.8 4.5 8.8 8.3 13.1 15.5 17.2 52.2 17.9 68.7 1.4 2.2-2.2 4.9-5.8 6-8.1 4.4-8.6 5-14.8 5-58.7V160h-11v6.5c0 3.6-.3 6.5-.6 6.5s-2.3-1.3-4.3-2.8c-13.5-10.7-29.9-14.5-43.2-10.3zm30.6 12.3c6 3.1 11.4 8.6 14.6 14.8 2.1 3.9 2.4 5.9 2.4 15.5 0 10.3-.2 11.3-2.9 16.3-3.6 6.5-8.3 10.7-15.5 14-4.6 2.1-7 2.5-14.1 2.5-9.5-.1-15.1-1.7-21.2-6.2-16.4-12.1-17.2-37.6-1.5-51.6 7.2-6.6 13.2-8.6 24.2-8.2 7.3.3 9.9.8 14 2.9zM877.7 160c-20.2 6.4-33.8 29.1-29.9 50 4.5 24 21.1 38.4 44.2 38.3 17.9-.1 35.2-10.4 39.9-23.6.9-2.5.7-2.8-3-4.8l-4.1-2-7 7c-9.7 9.8-15.7 12.6-26.8 12.6-6.9 0-9.4-.4-13.2-2.3-9.7-4.8-17.4-15.7-18-25.7l-.3-5 38.3-.3 38.2-.2v-3c0-18-13.7-36.4-30.9-41.4-7.4-2.2-20.1-2-27.4.4zm26.7 11.1c6.6 2.4 13.9 9.1 16.6 15.2 3.8 8.3 5.9 7.7-29 7.7-34.4 0-32.5.4-29.5-6.7 3.3-7.8 9.8-13.9 18.2-16.9 5.9-2.1 17.3-1.8 23.7.7zM988.5 159.4c-5.6 1.8-7.6 3-14.4 8.6l-6 5-.3-6.3-.3-6.2-5.2-.3-5.3-.3V246h10.9l.3-27.3c.3-25.9.4-27.4 2.6-32.2 2.7-6 8-11.7 14.2-15.3 3.9-2.3 5.6-2.7 12.6-2.7 10.4 0 14.8 2.6 19.1 11.2l2.8 5.8.3 30.2.4 30.3h10.9l-.3-32.3c-.3-28.5-.6-32.8-2.3-37.2-2.5-6.7-10.5-14.6-16.9-16.8-5.8-2-17.3-2.1-23.1-.3zM1084.8 159.5c-20.4 5.6-33.8 23.2-33.8 44.4 0 25.7 20.3 44.6 48 44.5 13.9-.1 29.9-7.2 36.3-16.1l2.6-3.7-4.1-2.7-4.1-2.8-4.1 3.5c-8.8 7.6-22.2 12.1-32.5 11.1-7.3-.8-17.1-5.7-21.7-11-6.2-7.1-8.8-13.9-8.8-23.2-.1-6.9.3-8.9 3-14.6 3.8-8.1 9-13.3 16.3-16.8 5-2.3 6.8-2.6 17.1-2.6 10.7 0 11.9.2 16.8 2.8 3 1.6 7.4 4.7 9.8 6.9l4.4 4.1 4-2.7 4.1-2.7-2-2.8c-5-6.9-14.4-13.2-23.6-15.5-7.1-1.9-21.1-1.9-27.7-.1zM1151 160.8c0 .5 7.4 17.6 16.5 38.1 10.9 24.6 16.5 38.4 16.5 40.7 0 2-2.8 9.8-7.1 19.5-3.9 8.8-6.8 16.7-6.5 17.5.8 2.2 7.9 1.8 10-.5 1-1 5.3-10.2 9.8-20.3 26.2-59.9 40.8-93.9 40.8-94.8 0-.7-2-1-5.2-.8l-5.3.3-3 6c-1.6 3.3-8.1 17.8-14.4 32.3-6.3 14.5-11.7 26-12.2 25.5-.4-.4-6.7-14.3-14-30.8-7.2-16.5-13.9-30.8-14.7-31.8-1.1-1.2-3-1.7-6.4-1.7-2.6 0-4.8.4-4.8.8zM597 229.4c-4.4 1.4-7.7 6.9-6.6 11 1.8 7.3 10.6 10.1 16.3 5.2 2.3-2 2.8-3.2 2.8-6.9 0-7.4-5.6-11.6-12.5-9.3z"/></svg>