<?xml version="1.0" standalone="no"?>
<!DOCTYPE svg PUBLIC "-//W3C//DTD SVG 20010904//EN"
 "http://www.w3.org/TR/2001/REC-SVG-20010904/DTD/svg10.dtd">
<svg version="1.0" xmlns="http://www.w3.org/2000/svg"
 width="1288.000000pt" height="381.000000pt" viewBox="0 0 1288.000000 381.000000"
 preserveAspectRatio="xMidYMid meet">

<g transform="translate(0.000000,381.000000) scale(0.100000,-0.100000)"
fill="#000000" stroke="none">
<path d="M10374 2719 c-3 -6 0 -17 8 -25 13 -13 16 -13 27 0 7 8 10 20 6 26
-8 13 -32 13 -41 -1z"/>
<path d="M11318 2714 c-37 -16 -53 -37 -42 -56 3 -5 17 0 31 14 30 28 94 31
120 6 22 -23 21 -73 -4 -106 -11 -15 -49 -49 -86 -77 -36 -27 -66 -58 -66 -67
-1 -16 10 -18 104 -18 87 0 105 3 105 15 0 12 -16 15 -81 15 l-81 0 49 38 c80
64 113 107 113 150 0 49 -22 79 -68 92 -46 12 -49 12 -94 -6z"/>
<path d="M11613 2719 c-51 -15 -77 -62 -81 -144 -4 -87 16 -132 71 -159 100
-48 189 43 173 178 -11 97 -80 150 -163 125z m72 -31 c37 -17 55 -58 55 -125
0 -96 -53 -153 -115 -125 -41 19 -60 60 -59 128 0 68 20 109 57 124 30 12 32
12 62 -2z"/>
<path d="M11915 2723 c-118 -29 -127 -269 -12 -312 51 -19 108 -2 138 41 47
65 32 214 -24 251 -27 17 -75 27 -102 20z m87 -50 c24 -21 38 -99 28 -153 -18
-97 -113 -122 -155 -40 -20 38 -19 133 1 171 25 49 84 60 126 22z"/>
<path d="M12148 2714 c-36 -15 -53 -37 -43 -54 3 -5 22 2 43 16 60 41 125 17
125 -46 0 -41 -26 -75 -106 -135 -36 -28 -66 -58 -66 -68 -1 -16 9 -17 106
-15 72 2 108 7 110 15 3 9 -19 13 -78 15 l-82 3 55 45 c70 57 98 97 98 141 0
46 -23 76 -68 89 -46 12 -49 12 -94 -6z"/>
<path d="M10171 2627 c-74 -37 -40 -117 49 -117 46 0 80 -17 80 -40 0 -32 -44
-44 -108 -30 -30 6 -56 9 -59 7 -12 -12 10 -26 57 -36 86 -18 158 22 142 81
-6 24 -58 48 -105 48 -46 0 -76 23 -61 47 9 13 24 18 60 18 27 0 59 -4 72 -8
16 -6 22 -5 22 6 0 31 -103 48 -149 24z"/>
<path d="M10525 2631 c-47 -20 -59 -48 -60 -134 0 -70 3 -82 18 -85 15 -3 17
6 17 77 0 92 17 121 70 121 53 0 70 -29 70 -120 0 -64 3 -80 15 -80 12 0 15
16 15 88 0 81 -2 91 -24 111 -26 25 -89 36 -121 22z"/>
<path d="M10784 2630 c-39 -15 -64 -59 -64 -110 0 -59 26 -96 78 -110 47 -12
114 3 106 25 -4 11 -12 12 -32 4 -65 -25 -128 26 -119 96 9 67 67 92 140 61
12 -6 17 -4 17 8 0 30 -77 46 -126 26z"/>
<path d="M10983 2620 c-41 -24 -53 -48 -53 -103 0 -56 27 -93 78 -107 46 -12
112 3 112 26 0 12 -6 13 -22 7 -47 -16 -90 -8 -116 23 l-25 29 64 6 c76 6 107
21 115 53 17 70 -79 112 -153 66z m101 -16 c22 -9 20 -51 -3 -64 -20 -10 -121
-14 -121 -5 0 14 31 64 42 68 19 8 64 8 82 1z"/>
<path d="M10380 2520 c0 -91 3 -110 15 -110 12 0 15 19 15 110 0 91 -3 110
-15 110 -12 0 -15 -19 -15 -110z"/>
<path d="M4900 1950 l0 -600 54 0 54 0 4 273 c3 261 4 274 27 325 31 68 114
145 182 167 117 39 224 1 276 -98 l28 -52 3 -307 3 -308 60 0 59 0 0 173 c-1
94 -5 241 -10 324 -7 128 -12 161 -33 205 -32 72 -65 108 -129 143 -49 28 -61
30 -153 30 -90 0 -106 -3 -155 -28 -30 -16 -78 -50 -105 -78 -28 -27 -54 -49
-58 -49 -4 0 -7 108 -7 240 l0 240 -50 0 -50 0 0 -600z"/>
<path d="M2700 1945 l0 -595 55 0 55 0 0 595 0 595 -55 0 -55 0 0 -595z"/>
<path d="M4090 1945 l0 -595 55 0 55 0 2 189 3 188 185 -168 c102 -93 199
-178 215 -189 23 -15 47 -20 103 -20 l73 0 -243 221 c-134 121 -243 225 -243
229 0 4 99 95 220 200 121 106 222 197 223 201 5 14 -130 10 -155 -4 -12 -7
-103 -83 -202 -169 -100 -87 -183 -158 -186 -158 -3 0 -5 151 -5 335 l0 335
-50 0 -50 0 0 -595z"/>
<path d="M1996 2229 c-239 -34 -410 -276 -368 -521 35 -205 174 -348 370 -379
182 -30 383 67 462 221 l18 36 -45 24 -46 24 -16 -24 c-81 -126 -205 -190
-343 -177 -149 13 -270 132 -285 282 l-6 55 382 0 c330 0 382 2 387 15 4 8 1
43 -5 77 -43 244 -260 401 -505 367z m187 -125 c83 -28 171 -123 191 -206 l6
-28 -314 0 -315 0 8 28 c30 102 109 182 211 213 45 13 165 10 213 -7z"/>
<path d="M886 2209 c-69 -24 -93 -38 -163 -97 l-53 -44 0 72 0 71 -52 -3 -53
-3 0 -585 0 -585 55 0 55 0 3 222 2 223 62 -50 c82 -66 151 -92 259 -98 71 -3
99 0 151 17 267 89 386 402 250 655 -97 178 -327 270 -516 205z m269 -121 c67
-35 128 -100 161 -171 32 -72 37 -175 10 -252 -65 -194 -288 -288 -470 -199
-67 33 -116 82 -153 154 -25 49 -28 65 -28 155 0 117 17 165 86 240 74 80 139
106 259 101 68 -2 95 -8 135 -28z"/>
<path d="M3295 2210 c-277 -88 -389 -434 -224 -692 109 -170 330 -239 528
-166 96 36 174 100 230 191 23 37 23 39 5 52 -23 17 -74 39 -77 34 -2 -2 -20
-27 -40 -55 -70 -97 -152 -138 -282 -138 -76 -1 -98 3 -139 23 -98 48 -167
146 -182 259 l-7 52 387 0 386 0 0 30 c0 180 -137 364 -309 414 -74 22 -200
20 -276 -4z m289 -119 c82 -40 141 -111 161 -193 l7 -28 -311 0 c-345 0 -326
-4 -296 67 33 78 97 138 182 169 61 23 197 14 257 -15z"/>
<path d="M6600 2212 c-107 -36 -174 -87 -232 -176 -101 -156 -104 -356 -8
-506 46 -72 130 -145 195 -169 173 -65 331 -37 460 81 l55 50 0 -71 0 -71 55
0 55 0 0 430 0 430 -55 0 -55 0 0 -71 0 -71 -52 48 c-29 26 -82 61 -118 78
-84 39 -213 47 -300 18z m265 -113 c221 -83 281 -398 108 -573 -63 -64 -132
-91 -233 -90 -74 0 -93 4 -143 29 -70 35 -130 97 -165 173 -36 76 -38 202 -5
274 42 93 113 161 201 193 58 21 172 19 237 -6z"/>
<path d="M7689 2211 c-197 -63 -336 -291 -300 -494 16 -92 71 -196 133 -252
96 -86 192 -119 326 -113 109 5 177 31 262 99 l63 51 -6 -91 c-4 -50 -13 -106
-21 -125 -23 -56 -81 -111 -148 -142 -55 -24 -76 -28 -158 -28 -125 -1 -182
19 -258 88 -31 29 -67 58 -79 64 -22 12 -103 17 -103 7 0 -18 45 -88 83 -131
155 -172 522 -179 687 -14 22 22 49 58 60 81 44 86 50 148 50 587 l0 412 -55
0 -55 0 0 -65 c0 -36 -3 -65 -6 -65 -3 0 -23 13 -43 28 -135 107 -299 145
-432 103z m306 -123 c60 -31 114 -86 146 -148 21 -39 24 -59 24 -155 0 -103
-2 -113 -29 -163 -36 -65 -83 -107 -155 -140 -46 -21 -70 -25 -141 -25 -95 1
-151 17 -212 62 -164 121 -172 376 -15 516 72 66 132 86 242 82 73 -3 99 -8
140 -29z"/>
<path d="M8777 2210 c-202 -64 -338 -291 -299 -500 45 -240 211 -384 442 -383
179 1 352 104 399 236 9 25 7 28 -30 48 l-41 20 -70 -70 c-97 -98 -157 -126
-268 -126 -69 0 -94 4 -132 23 -97 48 -174 157 -180 257 l-3 50 383 3 382 2 0
30 c0 180 -137 364 -309 414 -74 22 -201 20 -274 -4z m267 -111 c66 -24 139
-91 166 -152 38 -83 59 -77 -290 -77 -344 0 -325 -4 -295 67 33 78 98 139 182
169 59 21 173 18 237 -7z"/>
<path d="M9885 2216 c-56 -18 -76 -30 -144 -86 l-60 -50 -3 63 -3 62 -52 3
-53 3 0 -430 0 -431 54 0 55 0 3 273 c3 259 4 274 26 322 27 60 80 117 142
153 39 23 56 27 126 27 104 0 148 -26 191 -112 l28 -58 3 -302 4 -303 55 0 54
0 -3 323 c-3 285 -6 328 -23 372 -25 67 -105 146 -169 168 -58 20 -173 21
-231 3z"/>
<path d="M10848 2215 c-204 -56 -338 -232 -338 -444 0 -257 203 -446 480 -445
139 1 299 72 363 161 l26 37 -41 27 -41 28 -41 -35 c-88 -76 -222 -121 -325
-111 -73 8 -171 57 -217 110 -62 71 -88 139 -88 232 -1 69 3 89 30 146 38 81
90 133 163 168 50 23 68 26 171 26 107 0 119 -2 168 -28 30 -16 74 -47 98 -69
l44 -41 40 27 41 27 -20 28 c-50 69 -144 132 -236 155 -71 19 -211 19 -277 1z"/>
<path d="M11510 2202 c0 -5 74 -176 165 -381 109 -246 165 -384 165 -407 0
-20 -28 -98 -71 -195 -39 -88 -68 -167 -65 -175 8 -22 79 -18 100 5 10 10 53
102 98 203 262 599 408 939 408 948 0 7 -20 10 -52 8 l-53 -3 -30 -60 c-16
-33 -81 -178 -144 -323 -63 -145 -117 -260 -122 -255 -4 4 -67 143 -140 308
-72 165 -139 308 -147 318 -11 12 -30 17 -64 17 -26 0 -48 -4 -48 -8z"/>
<path d="M5970 1516 c-44 -14 -77 -69 -66 -110 18 -73 106 -101 163 -52 23 20
28 32 28 69 0 74 -56 116 -125 93z"/>
</g>
</svg>
